<?xml version="1.0" standalone="no"?>
<!DOCTYPE svg PUBLIC "-//W3C//DTD SVG 20010904//EN"
 "http://www.w3.org/TR/2001/REC-SVG-20010904/DTD/svg10.dtd">
<svg version="1.0" xmlns="http://www.w3.org/2000/svg"
 width="600.000000pt" height="350.000000pt" viewBox="0 0 600.000000 350.000000"
 preserveAspectRatio="xMidYMid meet">

<g transform="translate(0.000000,350.000000) scale(0.100000,-0.100000)"
fill="#000000" stroke="none">
<path d="M1005 3341 c-73 -18 -157 -91 -169 -147 -3 -16 -13 -108 -21 -204 -8
-96 -24 -272 -35 -390 -11 -118 -24 -267 -30 -330 -5 -63 -18 -221 -30 -349
-11 -129 -18 -243 -14 -253 3 -10 1 -18 -5 -18 -6 0 -11 -18 -11 -39 0 -22 -4
-73 -9 -113 -6 -40 -13 -100 -16 -133 -3 -33 -8 -69 -10 -80 -13 -65 -14 -165
-1 -212 15 -56 68 -142 125 -203 76 -81 107 -116 134 -151 38 -51 91 -83 173
-107 38 -11 161 -47 274 -80 113 -33 309 -90 435 -126 127 -36 246 -71 265
-77 74 -22 745 -216 878 -254 l83 -24 177 50 c97 27 215 61 262 74 146 43 217
63 505 141 154 41 430 118 613 170 182 52 352 98 376 104 124 28 209 84 277
182 12 18 27 38 33 43 17 15 109 137 124 162 6 13 12 30 12 38 0 8 4 15 10 15
19 0 22 75 10 194 -13 116 -14 120 -27 88 -7 -17 -18 -32 -23 -32 -6 0 -13 0
-17 0 -5 0 -8 6 -8 13 0 6 -8 11 -18 11 -9 -1 -14 3 -11 8 4 5 18 8 33 6 21
-3 26 0 27 19 2 19 -1 21 -16 13 -25 -13 -31 -13 -29 3 6 48 -23 77 -79 77
-13 0 -20 4 -17 10 3 6 17 7 30 4 22 -5 44 11 30 24 -3 3 -10 0 -15 -8 -7 -10
-10 -11 -10 -2 0 7 -14 12 -35 12 -22 0 -38 6 -41 15 -4 8 -10 15 -16 15 -9 0
-1 -196 9 -212 2 -5 0 -8 -5 -8 -10 0 -38 337 -28 347 3 3 6 -1 6 -10 0 -10 8
-17 18 -17 14 1 12 5 -9 23 -23 20 -27 34 -32 108 -4 46 -14 161 -22 254 -20
236 -45 566 -44 590 2 33 28 -176 28 -227 1 -45 12 -61 26 -38 11 17 23 11 18
-9 -3 -10 0 -22 6 -25 6 -4 11 -4 12 1 0 4 2 19 3 33 1 14 6 35 10 48 4 13 3
22 -3 22 -19 0 0 28 23 34 16 4 22 13 22 33 -1 15 -5 31 -11 36 -6 4 -5 10 3
15 16 11 15 153 -2 164 -8 5 -8 10 1 19 6 6 9 18 6 25 -3 8 1 22 8 31 10 12
10 14 2 9 -7 -4 -22 -1 -34 7 -20 15 -10 35 11 22 6 -3 10 0 10 8 0 20 -25 28
-39 14 -8 -8 -14 -7 -23 2 -10 11 -10 13 0 7 6 -4 12 -2 12 3 0 18 -29 12 -47
-9 -10 -11 -25 -20 -35 -20 -10 0 -18 -4 -18 -10 0 -5 5 -10 11 -10 5 0 7 -5
4 -10 -12 -19 -23 0 -22 35 1 19 4 30 8 24 7 -11 59 16 59 30 0 19 -15 19 -28
0 -8 -12 -18 -17 -23 -12 -9 9 -11 19 -24 143 -4 36 -11 73 -16 82 -5 10 -5
18 0 20 5 2 -4 22 -20 46 -16 24 -26 48 -23 54 4 6 10 5 15 -3 7 -11 9 -10 9
4 0 14 5 17 20 12 20 -6 30 10 10 17 -5 2 24 3 65 4 62 1 73 -1 64 -13 -9 -10
-7 -13 9 -13 11 0 25 -6 31 -14 13 -16 29 -132 32 -241 2 -68 0 -80 -15 -83
-9 -2 -14 -7 -11 -12 3 -5 12 -7 20 -3 20 7 19 -16 -2 -41 -17 -20 -17 -20 0
-7 23 18 35 6 18 -21 -10 -17 -10 -19 1 -16 17 6 17 50 1 238 -18 202 -45 276
-94 250 -23 -13 -35 -8 -24 10 4 6 13 9 21 6 8 -3 14 1 14 9 0 7 -25 26 -55
41 l-56 27 -1167 8 c-2165 14 -2857 17 -2887 10z m4005 -125 c0 -3 -4 -8 -10
-11 -5 -3 -10 -1 -10 4 0 6 5 11 10 11 6 0 10 -2 10 -4z m-89 -64 c-7 -2 -18
1 -23 6 -8 8 -4 9 13 5 13 -4 18 -8 10 -11z m-1331 -17 c0 -3 -9 -5 -20 -5
-11 0 -20 7 -20 15 0 13 4 14 20 5 11 -6 20 -13 20 -15z m83 -9 c-16 -5 -29
-4 -36 3 -8 8 -5 11 11 11 12 0 22 5 22 10 0 6 6 5 14 -2 12 -11 10 -14 -11
-22z m-148 14 c-3 -5 -10 -10 -16 -10 -5 0 -9 5 -9 10 0 6 7 10 16 10 8 0 12
-4 9 -10z m275 -10 c0 -5 -5 -10 -11 -10 -5 0 -7 5 -4 10 3 6 8 10 11 10 2 0
4 -4 4 -10z m-343 -6 c-3 -3 -12 -4 -19 -1 -8 3 -5 6 6 6 11 1 17 -2 13 -5z
m167 -28 c-3 -9 -15 -16 -26 -16 -19 0 -19 1 3 19 27 22 32 21 23 -3z m1276
14 c0 -5 -5 -10 -11 -10 -5 0 -7 5 -4 10 3 6 8 10 11 10 2 0 4 -4 4 -10z m-10
-40 c0 -5 -4 -10 -10 -10 -5 0 -10 5 -10 10 0 6 5 10 10 10 6 0 10 -4 10 -10z
m-1 -113 c-12 -26 -37 -43 -47 -32 -3 3 4 12 16 21 12 8 22 25 22 37 0 15 3
18 10 11 8 -8 7 -19 -1 -37z m51 37 c0 -3 -5 -14 -10 -24 -9 -16 -7 -19 17
-17 15 1 28 -2 28 -8 11 -110 17 -192 19 -242 2 -60 2 -61 -26 -65 -15 -3 -26
-3 -24 0 3 2 -4 13 -14 25 -10 12 -28 33 -39 46 -11 13 -23 32 -26 42 -4 11
-10 17 -13 15 -4 -2 -12 7 -19 20 -7 16 -8 26 -1 30 6 4 6 9 -2 14 -12 8 -6
30 9 30 4 0 15 -18 25 -41 10 -22 20 -38 23 -36 2 3 0 14 -6 25 -6 11 -8 28
-5 37 4 10 2 15 -7 13 -26 -6 -20 32 9 62 16 16 32 41 36 55 5 21 26 37 26 19z
m-109 -113 c-12 -22 -37 -30 -27 -8 3 6 9 20 12 30 4 12 10 15 16 9 6 -6 6
-17 -1 -31z m-2631 -7 c0 -1 -62 -147 -85 -199 -36 -85 -66 -176 -60 -185 3
-5 0 -13 -9 -16 -8 -3 -12 -12 -9 -20 3 -8 0 -14 -6 -14 -6 0 -8 -6 -5 -13 3
-8 -9 -51 -26 -97 -32 -89 -35 -104 -21 -96 5 3 9 -6 9 -20 0 -17 -3 -22 -8
-13 -11 17 -35 -2 -57 -45 -9 -16 -22 -36 -29 -44 -8 -7 -14 -20 -14 -28 0 -8
-4 -13 -9 -10 -5 3 -18 -16 -29 -42 -86 -196 -160 -351 -164 -346 -6 5 -176
12 -332 13 -69 1 -86 4 -79 14 6 6 21 42 36 78 43 109 258 594 397 894 15 33
42 90 58 126 l30 65 206 0 c113 -1 206 -1 206 -2z m1414 -16 c-2 -21 -103
-318 -119 -349 -8 -15 -15 -42 -15 -59 0 -25 -4 -30 -24 -30 -17 0 -23 5 -22
18 1 21 7 21 -304 24 l-245 3 -3 175 c-2 96 0 190 3 208 l6 32 362 -4 c293 -4
362 -7 361 -18z m-852 -60 c-32 -66 -52 -116 -97 -236 -17 -46 -45 -94 -76
-131 -27 -33 -49 -63 -49 -67 0 -5 -16 -20 -36 -33 -34 -24 -114 -129 -114
-150 0 -7 26 -11 63 -12 34 0 108 -1 164 -2 l101 -2 -5 -210 c-2 -115 -5 -217
-5 -225 -1 -8 2 -27 7 -42 7 -27 6 -28 -31 -28 -63 0 -253 26 -329 45 -87 21
-188 70 -227 108 -72 73 -107 203 -88 335 22 158 104 351 189 444 51 56 162
138 238 177 55 27 191 71 224 71 14 0 29 4 35 9 9 9 55 19 63 14 2 -1 -10 -31
-27 -65z m1398 49 c0 -7 -19 -67 -41 -132 -23 -66 -52 -154 -64 -195 -13 -41
-39 -120 -59 -175 -20 -55 -36 -116 -36 -136 0 -76 51 -149 118 -169 21 -6 42
-13 48 -15 7 -2 -8 -61 -43 -162 -30 -87 -59 -175 -65 -195 -10 -35 -13 -38
-47 -38 -43 0 -64 11 -56 31 4 11 -9 20 -44 33 -102 36 -248 141 -278 199 -28
54 -53 160 -53 223 0 72 18 135 110 379 37 99 82 222 100 273 l32 92 189 0
c148 0 189 -3 189 -13z m611 -40 c-8 -8 -11 -7 -11 4 0 20 13 34 18 19 3 -7
-1 -17 -7 -23z m43 8 c-7 -18 14 -75 27 -75 5 0 14 -12 19 -26 6 -14 14 -23
18 -20 4 2 9 -4 9 -15 1 -10 -2 -19 -8 -19 -5 0 -9 5 -9 10 0 6 -12 15 -27 21
-22 8 -25 12 -13 20 13 8 12 11 -3 20 -33 19 -46 99 -17 99 5 0 7 -7 4 -15z
m326 -35 c0 -5 -7 -10 -16 -10 -8 0 -12 5 -9 10 3 6 10 10 16 10 5 0 9 -4 9
-10z m0 -24 c0 -11 -19 -15 -25 -6 -3 5 1 10 9 10 9 0 16 -2 16 -4z m-73 -68
c-3 -7 -5 -2 -5 12 0 14 2 19 5 13 2 -7 2 -19 0 -25z m-427 2 c0 -5 -4 -10
-10 -10 -5 0 -10 5 -10 10 0 6 5 10 10 10 6 0 10 -4 10 -10z m427 -52 c-3 -8
-6 -5 -6 6 -1 11 2 17 5 13 3 -3 4 -12 1 -19z m63 12 c0 -5 -2 -10 -4 -10 -3
0 -8 5 -11 10 -3 6 -1 10 4 10 6 0 11 -4 11 -10z m-252 -25 c-8 -8 -48 8 -42
16 3 5 14 4 25 -2 12 -6 19 -12 17 -14z m92 -25 c0 -5 -5 -10 -11 -10 -5 0 -7
5 -4 10 3 6 8 10 11 10 2 0 4 -4 4 -10z m-30 -4 c0 -3 -4 -8 -10 -11 -5 -3
-10 -1 -10 4 0 6 5 11 10 11 6 0 10 -2 10 -4z m-10 -96 c0 -5 -4 -10 -10 -10
-5 0 -10 5 -10 10 0 6 5 10 10 10 6 0 10 -4 10 -10z m270 -60 c0 -5 -5 -10
-11 -10 -5 0 -7 5 -4 10 3 6 8 10 11 10 2 0 4 -4 4 -10z m-460 -150 c0 -5 -5
-10 -11 -10 -5 0 -7 5 -4 10 3 6 8 10 11 10 2 0 4 -4 4 -10z m-1335 -34 c-16
-54 -27 -74 -41 -69 -8 3 -14 0 -14 -6 0 -6 5 -11 11 -11 7 0 9 -9 5 -22 -4
-13 -8 -27 -10 -33 -2 -5 -5 -17 -8 -25 -4 -8 -37 -111 -75 -229 l-68 -213
-204 6 c-112 3 -206 7 -208 9 -1 2 20 46 48 98 28 52 71 132 96 179 45 85 95
176 139 258 20 36 22 44 9 48 -8 4 -26 3 -40 0 -21 -5 -25 -3 -25 14 0 20 5
21 195 19 193 -2 195 -2 190 -23z m1605 11 c0 -7 -9 -18 -20 -25 -16 -10 -20
-10 -20 1 0 14 20 37 32 37 4 0 8 -6 8 -13z m-3000 -17 c0 -5 -2 -10 -4 -10
-3 0 -8 5 -11 10 -3 6 -1 10 4 10 6 0 11 -4 11 -10z m2820 -50 c0 -5 -5 -10
-11 -10 -5 0 -7 5 -4 10 3 6 8 10 11 10 2 0 4 -4 4 -10z m140 -46 c-6 -14 -8
-30 -4 -35 6 -10 -23 -25 -32 -17 -4 5 9 35 29 66 14 20 17 13 7 -14z m65 -33
c-3 -6 -11 -11 -17 -11 -6 0 -6 6 2 15 14 17 26 13 15 -4z m-4120 -21 c-3 -5
-10 -10 -16 -10 -5 0 -9 5 -9 10 0 6 7 10 16 10 8 0 12 -4 9 -10z m4120 -10
c-3 -5 -11 -10 -16 -10 -6 0 -7 5 -4 10 3 6 11 10 16 10 6 0 7 -4 4 -10z m-59
-35 c-7 -27 11 -36 20 -10 4 8 17 15 30 15 19 0 23 -5 21 -22 -2 -12 -9 -24
-15 -26 -6 -2 -8 5 -5 17 3 13 1 21 -6 21 -7 0 -9 -5 -6 -11 4 -6 -2 -13 -14
-16 -23 -6 -28 -19 -8 -26 6 -3 2 -6 -10 -6 -13 -1 -23 -7 -23 -16 0 -19 -11
-19 -36 -1 -15 12 -17 18 -8 33 7 10 20 17 30 16 11 -1 13 0 7 3 -18 8 -16 24
2 24 9 0 12 6 9 15 -4 8 -1 15 6 15 8 0 10 -9 6 -25z m-126 -36 c0 -7 -24 -88
-72 -246 l-32 -103 -323 0 c-260 0 -323 3 -323 13 0 12 98 325 106 338 4 8
644 6 644 -2z m-3881 -231 c0 -123 1 -243 2 -268 1 -29 -6 -63 -20 -95 -31
-69 -40 -215 -17 -269 16 -38 16 -39 -2 -23 -25 23 -32 21 -32 -7 0 -23 -16
-44 -25 -34 -3 2 0 19 5 38 7 23 6 38 -1 47 -9 9 -8 13 0 13 7 0 9 5 6 10 -4
6 -11 8 -16 5 -5 -3 -6 1 -3 9 3 9 10 16 15 16 12 0 12 157 0 165 -6 3 -10 13
-11 23 -5 82 -8 103 -14 109 -3 3 -1 12 5 20 8 9 8 17 0 26 -8 11 -6 16 12 24
23 11 41 72 52 178 13 132 31 235 40 235 2 0 4 -100 4 -222z m4082 205 c0 -5
2 -36 5 -70 5 -55 4 -61 -13 -60 -13 2 -19 -6 -21 -27 -2 -17 0 -26 7 -22 15
9 44 -40 38 -64 -3 -11 -1 -20 3 -20 4 0 9 -41 9 -91 1 -50 4 -102 7 -116 6
-24 5 -24 -16 -13 -20 11 -22 10 -17 -4 6 -14 3 -16 -14 -11 -13 5 -25 2 -29
-6 -7 -10 -11 -10 -24 1 -14 11 -19 10 -34 -4 -23 -20 -32 -20 -32 0 0 10 6
14 14 11 8 -3 20 0 26 8 6 8 19 11 27 8 14 -5 13 -1 -3 25 -10 18 -24 32 -31
32 -22 0 -14 18 10 22 17 3 13 7 -21 18 -48 15 -67 38 -47 57 15 14 25 7 25
-19 0 -11 5 -16 10 -13 6 4 7 11 4 17 -5 8 -1 9 12 5 11 -4 4 5 -15 21 -24 21
-30 31 -21 37 7 4 16 2 20 -5 10 -16 20 1 15 26 -2 10 -4 19 -5 19 -8 0 -8 91
0 100 6 7 10 17 9 21 -5 28 2 46 16 41 20 -8 28 9 15 33 -10 18 -7 22 22 35
38 16 48 18 49 8z m-124 -39 c-3 -3 -12 -4 -19 -1 -8 3 -5 6 6 6 11 1 17 -2
13 -5z m-37 -78 c0 -3 -4 -8 -10 -11 -5 -3 -10 -1 -10 4 0 6 5 11 10 11 6 0
10 -2 10 -4z m-45 -33 c-4 -10 -8 -28 -10 -41 -1 -12 -5 -26 -9 -29 -9 -9 -1
60 8 75 11 18 19 14 11 -5z m223 -12 c3 -8 -1 -12 -9 -9 -7 2 -15 10 -17 17
-3 8 1 12 9 9 7 -2 15 -10 17 -17z m-174 -27 c6 -24 2 -44 -8 -33 -9 11 -15
59 -7 59 5 0 12 -12 15 -26z m-24 -34 c0 -5 -4 -10 -10 -10 -5 0 -10 5 -10 10
0 6 5 10 10 10 6 0 10 -4 10 -10z m-40 -31 c0 -5 -4 -9 -10 -9 -5 0 -10 7 -10
16 0 8 5 12 10 9 6 -3 10 -10 10 -16z m63 -13 c-10 -13 -19 -23 -21 -21 -7 6
19 45 29 45 5 0 2 -11 -8 -24z m-30 -71 c-3 -9 -8 -14 -10 -11 -3 3 -2 9 2 15
9 16 15 13 8 -4z m47 -48 c22 -16 23 -17 4 -17 -29 0 -59 24 -49 40 4 7 10 8
14 3 3 -5 17 -17 31 -26z m-4180 -13 c0 -8 -4 -12 -10 -9 -5 3 -10 10 -10 16
0 5 5 9 10 9 6 0 10 -7 10 -16z m2618 -34 c2 -6 15 -10 28 -10 28 0 32 -16 7
-23 -10 -3 171 -6 402 -8 231 -2 447 -4 480 -5 33 -1 162 -2 288 -3 182 -1
227 -4 227 -14 0 -15 -290 -27 -661 -27 -158 0 -198 -3 -202 -14 -4 -11 -64
-15 -298 -21 -253 -6 -298 -10 -333 -26 -68 -31 -212 -19 -281 23 -5 3 -46 9
-90 13 -44 4 -82 11 -85 15 -8 14 -525 30 -929 30 -400 0 -651 8 -651 22 0 4
393 8 873 8 766 0 878 2 905 15 17 9 67 20 113 25 45 5 85 12 88 16 9 9 115
-5 119 -16z m1617 -20 c3 -5 -1 -10 -9 -10 -9 0 -16 5 -16 10 0 6 4 10 9 10 6
0 13 -4 16 -10z m-40 -10 c3 -5 1 -10 -4 -10 -6 0 -11 5 -11 10 0 6 2 10 4 10
3 0 8 -4 11 -10z m-65 -46 c0 -8 -4 -12 -10 -9 -5 3 -10 10 -10 16 0 5 5 9 10
9 6 0 10 -7 10 -16z m-40 -14 c0 -5 -4 -10 -10 -10 -5 0 -10 5 -10 10 0 6 5
10 10 10 6 0 10 -4 10 -10z m256 -6 c15 -4 24 -13 24 -26 0 -14 -5 -18 -15
-14 -9 3 -18 -1 -22 -10 -5 -14 -7 -15 -15 -1 -4 9 -22 18 -38 22 -35 8 -41
28 -7 23 14 -2 21 2 19 11 -2 9 3 11 14 7 9 -3 27 -9 40 -12z m-140 -10 c18
-15 18 -15 -6 -10 -14 3 -31 6 -37 6 -7 0 -13 5 -13 10 0 15 34 12 56 -6z
m-35 -49 c1 -17 -18 -17 -25 0 -4 11 -1 15 10 13 8 -2 15 -7 15 -13z m59 5 c0
-5 -2 -10 -4 -10 -3 0 -8 5 -11 10 -3 6 -1 10 4 10 6 0 11 -4 11 -10z m70 -10
c0 -5 -2 -10 -4 -10 -3 0 -8 5 -11 10 -3 6 -1 10 4 10 6 0 11 -4 11 -10z m240
0 c0 -13 -11 -13 -30 0 -12 8 -11 10 8 10 12 0 22 -4 22 -10z m-4583 -47 c-3
-10 -5 -2 -5 17 0 19 2 27 5 18 2 -10 2 -26 0 -35z m180 5 c-3 -7 -5 -2 -5 12
0 14 2 19 5 13 2 -7 2 -19 0 -25z m3903 11 c0 -6 -4 -7 -10 -4 -5 3 -10 11
-10 16 0 6 5 7 10 4 6 -3 10 -11 10 -16z m165 11 c3 -5 1 -10 -4 -10 -6 0 -11
5 -11 10 0 6 2 10 4 10 3 0 8 -4 11 -10z m-11 -39 c3 -5 -1 -11 -9 -14 -9 -4
-12 -1 -8 9 6 16 10 17 17 5z m306 -3 c0 -13 38 -9 42 4 2 6 10 8 16 4 9 -5 9
-11 -2 -22 -17 -16 -42 -18 -51 -4 -3 5 -12 7 -19 4 -7 -3 -16 1 -19 8 -3 9 2
14 14 14 11 0 19 -4 19 -8z m-3530 -11 c0 -8 -5 -39 -11 -71 -9 -43 -16 -56
-26 -52 -8 4 -19 6 -24 6 -5 0 -6 18 -3 43 4 23 8 49 8 57 1 8 10 18 21 22 31
10 35 9 35 -5z m300 -11 c0 -23 -3 -24 -35 -19 -19 3 -35 2 -35 -3 0 -5 -3
-20 -7 -32 -5 -22 -3 -24 38 -21 44 3 49 0 49 -25 0 -10 -12 -12 -47 -9 -95 8
-93 7 -92 68 l2 54 56 4 c31 2 59 4 64 5 4 1 7 -9 7 -22z m205 14 c10 16 88
12 113 -6 23 -16 31 -64 11 -64 -7 0 -9 -11 -5 -30 4 -22 2 -30 -8 -30 -25 0
-46 12 -46 26 0 8 -9 14 -20 14 -13 0 -20 -7 -20 -19 0 -19 -26 -36 -34 -23
-3 5 -38 9 -78 10 -49 2 -77 7 -84 17 -14 19 -6 70 15 89 18 16 119 26 138 13
6 -4 14 -3 18 3z m247 4 c24 -4 40 -13 43 -24 5 -17 8 -16 30 6 28 28 80 32
111 10 14 -11 22 -12 33 -3 8 7 41 12 73 12 57 0 59 -1 56 -25 -3 -22 -7 -25
-35 -22 -30 3 -33 1 -33 -23 0 -25 2 -26 48 -23 l47 3 5 45 c3 25 8 44 13 43
4 -2 16 -3 27 -3 13 0 20 -7 20 -20 0 -18 2 -17 25 5 32 33 95 35 125 3 17
-18 20 -19 20 -5 0 11 9 18 25 19 79 5 89 4 107 -14 18 -18 21 -18 37 -4 24
22 117 22 125 0 18 -46 -3 -128 -32 -122 -9 2 -16 9 -15 16 3 10 -36 39 -40
30 -15 -30 -27 -44 -41 -46 -12 -3 -16 5 -18 35 l-1 38 -4 -37 c-4 -33 -8 -38
-29 -38 -22 0 -24 4 -24 45 0 38 -3 45 -19 45 -16 0 -21 -9 -27 -45 -5 -39
-10 -45 -30 -45 -18 0 -24 6 -24 21 0 18 -2 19 -15 9 -8 -7 -15 -24 -15 -39
-1 -22 -2 -24 -11 -8 -6 10 -22 17 -42 17 -41 0 -77 24 -78 53 -1 13 -4 7 -8
-13 l-6 -35 -80 3 c-122 4 -125 5 -126 55 0 44 -6 38 -25 -28 -11 -35 -44 -47
-44 -16 0 16 -6 21 -25 21 -16 0 -25 -6 -25 -15 0 -24 -31 -31 -46 -10 -8 10
-14 13 -14 7 0 -7 -12 -12 -26 -12 -24 0 -26 3 -22 33 7 42 1 57 -23 57 -14 0
-19 -7 -19 -29 0 -45 -10 -61 -37 -61 -21 0 -24 4 -19 23 3 12 6 36 6 54 0 55
26 69 102 57z m2524 -22 c-4 -3 -14 2 -24 12 -16 18 -16 18 6 6 13 -6 21 -14
18 -18z m-3137 9 c10 -6 12 -23 9 -60 -3 -28 -7 -53 -9 -56 -9 -9 -48 7 -44
18 2 7 6 27 9 45 5 29 3 32 -19 32 -20 0 -25 -6 -30 -37 -10 -58 -12 -62 -35
-56 -19 5 -20 11 -15 52 4 25 8 52 10 59 5 14 102 17 124 3z m1589 -33 l-3
-43 45 -5 c25 -3 44 -8 43 -12 -2 -5 -3 -21 -3 -38 0 -28 -3 -30 -36 -30 -19
0 -33 4 -30 8 3 5 -13 16 -34 26 -38 16 -40 20 -40 61 0 59 8 75 37 75 23 0
24 -3 21 -42z m305 -33 l-2 -70 10 60 c12 70 27 85 85 85 54 0 68 -17 61 -77
-5 -45 -34 -84 -46 -64 -3 5 -19 9 -34 9 -15 0 -26 -3 -23 -6 3 -2 1 -13 -4
-22 -8 -14 -24 -18 -85 -19 -70 -1 -75 0 -75 20 0 11 -9 28 -21 38 -17 14 -20
23 -14 54 11 57 28 68 94 65 l56 -3 -2 -70z m337 55 c6 -12 8 -40 4 -70 -5
-40 -10 -50 -25 -50 -16 0 -19 8 -19 45 0 25 -4 45 -10 45 -5 0 -10 -20 -10
-45 0 -42 -2 -45 -26 -45 -25 0 -26 1 -20 45 5 28 3 45 -3 45 -5 0 -11 -19
-13 -42 -2 -36 -7 -44 -25 -46 -21 -3 -23 1 -23 45 0 91 2 93 86 93 63 0 75
-3 84 -20z m72 10 c2 -5 1 -37 0 -70 -4 -58 -5 -60 -31 -60 -27 0 -28 0 -24
58 3 31 6 63 8 70 5 14 42 16 47 2z m146 -2 c13 -13 16 -85 6 -112 -3 -9 -15
-16 -25 -16 -16 0 -19 8 -19 45 0 41 -2 45 -25 45 -23 0 -25 -4 -25 -45 0 -41
-2 -45 -25 -45 -22 0 -25 4 -25 33 0 17 3 49 6 70 l7 37 56 0 c31 0 62 -5 69
-12z m170 -10 c-3 -20 -9 -23 -47 -23 -45 -1 -58 -12 -48 -40 7 -17 47 -8 47
11 0 8 11 14 26 14 20 0 25 -4 20 -16 -3 -9 -6 -27 -6 -40 0 -22 -4 -24 -49
-24 -39 0 -52 -4 -64 -22 -16 -23 -16 -23 -10 10 3 20 1 32 -6 32 -17 0 -13
72 5 98 13 19 24 22 75 22 57 0 60 -1 57 -22z m607 -5 c18 -28 18 -28 -2 -11
-14 13 -22 15 -30 7 -8 -8 -16 -8 -30 0 -14 8 -15 11 -3 12 8 1 21 1 28 0 6
-1 12 3 12 9 0 16 6 12 25 -17z m-4367 -94 c13 0 11 -3 -5 -9 -22 -9 -23 -40
-2 -40 4 0 6 7 2 16 -10 26 20 12 32 -14 5 -12 17 -22 27 -22 9 0 20 -5 24
-11 4 -7 0 -9 -14 -5 -11 4 -23 2 -27 -4 -3 -5 -1 -10 6 -10 6 0 9 -8 6 -20
-4 -15 2 -25 21 -37 37 -23 52 -43 52 -70 0 -13 5 -23 10 -23 6 0 10 -7 10
-15 0 -8 -3 -15 -6 -15 -11 0 -34 29 -34 44 0 8 -4 17 -8 20 -5 3 -6 -9 -4
-27 5 -30 37 -65 55 -59 5 1 6 -2 3 -7 -4 -5 -2 -12 4 -16 10 -6 15 10 10 30
-1 6 -2 34 -1 63 2 46 0 52 -18 52 -12 0 -21 5 -21 11 0 6 7 8 15 5 8 -3 22
-9 30 -12 10 -4 15 0 15 10 0 9 5 16 11 16 6 0 9 7 6 15 -4 8 -2 17 4 20 5 4
12 -1 16 -10 3 -10 0 -21 -7 -25 -7 -4 -10 -15 -7 -24 3 -8 2 -18 -4 -21 -5
-4 -7 -10 -4 -15 3 -5 0 -21 -5 -36 -8 -20 -7 -31 4 -43 19 -23 30 -61 16 -61
-6 0 -15 10 -20 23 -7 17 -9 18 -9 5 -1 -23 -13 -23 -59 1 -84 43 -157 149
-163 236 -2 22 1 76 7 120 l9 80 3 -57 c2 -46 6 -58 20 -59z m4492 29 c0 -36
-4 -35 -14 5 -4 16 -2 27 4 27 5 0 10 -14 10 -32z m104 16 c25 -10 19 -26 -6
-19 -31 10 -47 25 -26 25 9 0 23 -3 32 -6z m-236 -21 c5 -18 -10 -16 -34 2
-18 15 -18 15 5 13 14 -2 26 -9 29 -15z m-4288 -13 c0 -5 -4 -10 -10 -10 -5 0
-10 5 -10 10 0 6 5 10 10 10 6 0 10 -4 10 -10z m90 -91 c0 -11 -4 -18 -10 -14
-5 3 -7 12 -3 20 7 21 13 19 13 -6z m-50 -9 c0 -5 -2 -10 -4 -10 -3 0 -8 5
-11 10 -3 6 -1 10 4 10 6 0 11 -4 11 -10z m1635 -72 l-7 -63 61 3 61 4 0 -32
0 -32 -80 4 c-106 4 -115 13 -105 107 l7 71 35 0 35 0 -7 -62z m345 37 c0 -24
-3 -25 -67 -27 l-68 -2 63 -3 c58 -4 62 -5 62 -28 0 -24 -3 -25 -66 -25 -41 0
-63 -4 -59 -10 3 -5 31 -10 61 -10 51 0 54 -1 54 -25 0 -24 -2 -25 -73 -25
-60 0 -77 4 -95 20 -25 23 -27 38 -12 92 15 54 41 68 127 68 71 0 73 -1 73
-25z m186 8 c13 -14 15 -29 11 -78 -8 -80 -15 -97 -41 -93 -15 2 -22 11 -24
31 -3 23 -8 27 -37 27 -29 0 -34 -4 -37 -27 -3 -29 -23 -39 -46 -25 -21 14 -4
131 24 159 29 29 123 33 150 6z m234 -8 c0 -24 -3 -25 -60 -25 -56 0 -60 -2
-60 -22 0 -19 -2 -20 -10 -8 -7 11 -10 7 -10 -17 0 -31 2 -33 35 -33 31 0 35
3 35 25 0 21 5 25 30 25 26 0 30 -4 30 -27 0 -68 -6 -73 -83 -73 -86 0 -107
14 -107 72 0 42 21 93 42 101 7 3 46 6 86 6 70 1 72 0 72 -24z m76 -35 l-7
-60 34 0 34 0 7 60 c7 59 8 60 38 60 l31 0 -7 -62 c-4 -35 -9 -77 -12 -93 l-5
-31 -72 4 c-96 5 -110 18 -103 92 3 30 5 63 6 73 0 12 8 17 31 17 l32 0 -7
-60z m341 -7 c-4 -38 -7 -87 -7 -110 l0 -43 -65 0 c-50 0 -65 3 -65 14 0 8
-14 25 -31 37 -30 21 -31 25 -26 73 9 75 37 96 129 96 l71 0 -6 -67z m-2830
40 c3 -7 -3 -9 -16 -6 -12 3 -21 10 -21 15 0 13 32 6 37 -9z m173 2 c0 -8 -4
-15 -10 -15 -5 0 -10 7 -10 15 0 8 5 15 10 15 6 0 10 -7 10 -15z m4015 -15 c4
-6 -5 -5 -19 2 -14 6 -26 15 -26 20 0 10 36 -7 45 -22z m215 -2 c0 -6 -6 -5
-15 2 -8 7 -15 14 -15 16 0 2 7 1 15 -2 8 -4 15 -11 15 -16z m-4340 -4 c0 -8
-5 -12 -10 -9 -6 4 -8 11 -5 16 9 14 15 11 15 -7z m119 -51 c1 -7 -2 -13 -6
-13 -5 0 -9 15 -10 33 -1 26 0 28 7 12 5 -11 9 -26 9 -32z m4326 27 c3 -5 1
-10 -4 -10 -6 0 -11 5 -11 10 0 6 2 10 4 10 3 0 8 -4 11 -10z m-4388 -82 c-3
-7 -5 -2 -5 12 0 14 2 19 5 13 2 -7 2 -19 0 -25z m44 -10 c-3 -23 -11 -43 -18
-45 -7 -3 -10 3 -8 14 12 61 16 73 23 73 5 0 6 -19 3 -42z m-5 -95 c-11 -11
-17 4 -9 23 7 18 8 18 11 1 2 -10 1 -21 -2 -24z m2641 -325 c-3 -8 -6 -5 -6 6
-1 11 2 17 5 13 3 -3 4 -12 1 -19z"/>
<path d="M4917 2923 c-4 -3 -7 -11 -7 -17 0 -6 5 -5 12 2 6 6 9 14 7 17 -3 3
-9 2 -12 -2z"/>
<path d="M4912 2826 c-7 -16 -8 -26 -1 -26 12 0 22 25 17 41 -2 6 -9 0 -16
-15z"/>
<path d="M4940 2800 c0 -5 5 -10 10 -10 6 0 10 5 10 10 0 6 -4 10 -10 10 -5 0
-10 -4 -10 -10z"/>
<path d="M4950 2680 c-12 -7 -10 -9 8 -7 12 0 22 5 22 9 0 11 -12 10 -30 -2z"/>
<path d="M4955 1780 c-3 -5 -1 -10 4 -10 6 0 11 5 11 10 0 6 -2 10 -4 10 -3 0
-8 -4 -11 -10z"/>
<path d="M4982 1769 c-9 -14 -10 -24 -3 -33 10 -12 12 -44 5 -84 -3 -17 -10
-22 -20 -18 -10 4 -14 1 -12 -6 7 -21 29 -21 35 1 9 37 35 20 47 -31 3 -16 10
-28 15 -28 10 0 9 19 -2 37 -4 6 -6 32 -5 57 0 25 -2 49 -6 54 -5 4 -7 -2 -6
-13 4 -32 1 -45 -10 -45 -5 0 -10 18 -10 39 0 22 -5 43 -10 46 -6 4 -8 15 -5
26 8 25 3 24 -13 -2z"/>
<path d="M4966 1715 c-9 -26 -7 -32 5 -12 6 10 9 21 6 23 -2 3 -7 -2 -11 -11z"/>
<path d="M5000 1550 c0 -5 5 -10 11 -10 5 0 7 5 4 10 -3 6 -8 10 -11 10 -2 0
-4 -4 -4 -10z"/>
<path d="M2084 1292 c6 -10 72 -9 82 1 4 4 -14 7 -40 7 -26 0 -45 -4 -42 -8z"/>
<path d="M2260 1290 c-12 -8 -11 -10 8 -10 12 0 22 5 22 10 0 13 -11 13 -30 0z"/>
<path d="M2075 1250 c-4 -6 12 -10 39 -10 25 0 46 5 46 10 0 6 -18 10 -39 10
-22 0 -43 -4 -46 -10z"/>
<path d="M2565 1290 c-3 -5 3 -10 14 -10 12 0 21 5 21 10 0 6 -6 10 -14 10 -8
0 -18 -4 -21 -10z"/>
<path d="M2953 1264 c-11 -24 -10 -25 15 -22 19 2 28 10 30 26 5 32 -30 29
-45 -4z"/>
<path d="M3288 1283 c7 -3 16 -2 19 1 4 3 -2 6 -13 5 -11 0 -14 -3 -6 -6z"/>
<path d="M3795 1280 c3 -5 8 -10 11 -10 2 0 4 5 4 10 0 6 -5 10 -11 10 -5 0
-7 -4 -4 -10z"/>
<path d="M3643 1243 c9 -2 23 -2 30 0 6 3 -1 5 -18 5 -16 0 -22 -2 -12 -5z"/>
<path d="M3790 1230 c0 -5 5 -10 10 -10 6 0 10 5 10 10 0 6 -4 10 -10 10 -5 0
-10 -4 -10 -10z"/>
<path d="M680 1119 c0 -9 9 -24 20 -34 26 -23 26 -8 0 25 -14 18 -20 21 -20 9z"/>
<path d="M2876 1051 c-6 -10 33 -23 46 -15 4 3 8 9 8 15 0 12 -47 12 -54 0z"/>
<path d="M5135 3170 c-3 -5 -1 -10 4 -10 6 0 11 5 11 10 0 6 -2 10 -4 10 -3 0
-8 -4 -11 -10z"/>
<path d="M5160 2850 c-9 -6 -10 -10 -3 -10 6 0 15 5 18 10 8 12 4 12 -15 0z"/>
<path d="M5245 2714 c4 -11 10 -29 12 -41 3 -13 9 -21 13 -18 12 7 -4 68 -19
73 -11 4 -12 0 -6 -14z"/>
<path d="M5272 2600 c0 -14 2 -19 5 -12 2 6 2 18 0 25 -3 6 -5 1 -5 -13z"/>
<path d="M5282 2545 c0 -16 2 -22 5 -12 2 9 2 23 0 30 -3 6 -5 -1 -5 -18z"/>
<path d="M5292 2485 c0 -16 4 -41 8 -55 l8 -25 0 25 c0 14 -4 39 -8 55 l-8 30
0 -30z"/>
<path d="M5311 2354 c0 -11 3 -14 6 -6 3 7 2 16 -1 19 -3 4 -6 -2 -5 -13z"/>
<path d="M5122 2248 c-7 -7 -12 -23 -12 -37 l0 -24 19 22 c11 13 17 29 14 37
-6 17 -6 17 -21 2z"/>
<path d="M5145 1816 c3 -33 7 -62 10 -64 8 -8 4 60 -6 93 -6 22 -7 13 -4 -29z"/>
<path d="M5151 1684 c0 -11 3 -14 6 -6 3 7 2 16 -1 19 -3 4 -6 -2 -5 -13z"/>
<path d="M5370 1649 c0 -13 4 -30 9 -38 6 -9 8 -4 6 18 -3 38 -15 54 -15 20z"/>
<path d="M5260 1649 c0 -5 5 -7 10 -4 6 3 10 8 10 11 0 2 -4 4 -10 4 -5 0 -10
-5 -10 -11z"/>
<path d="M5178 1583 c-20 -5 -25 -33 -5 -33 14 1 47 24 47 34 0 7 -15 6 -42
-1z"/>
<path d="M5382 1530 c0 -19 2 -27 5 -17 2 9 2 25 0 35 -3 9 -5 1 -5 -18z"/>
<path d="M5270 1543 c-14 -3 -28 -10 -32 -16 -4 -7 -11 -7 -20 -1 -20 16 -58
15 -52 -1 3 -8 12 -11 20 -8 8 3 14 0 14 -6 0 -6 14 -11 30 -11 17 0 30 4 30
9 0 5 17 8 38 6 20 -1 27 0 15 2 -25 5 -30 18 -10 26 14 6 2 6 -33 0z"/>
<path d="M5381 1474 c0 -11 3 -14 6 -6 3 7 2 16 -1 19 -3 4 -6 -2 -5 -13z"/>
<path d="M5305 1440 c-19 -8 -19 -9 3 -9 12 -1 22 4 22 9 0 6 -1 10 -2 9 -2 0
-12 -4 -23 -9z"/>
<path d="M5384 1382 c-9 -5 -8 -11 2 -20 12 -11 14 -9 14 8 0 22 0 23 -16 12z"/>
</g>
</svg>
